<?xml version="1.0" encoding="UTF-8"?>
<svg id="Layer_3" data-name="Layer 3" xmlns="http://www.w3.org/2000/svg" viewBox="0 0 15.71 16.2">
  <defs>
    <style>
      .cls-1 {
        fill: #7d7d7d;
        stroke-width: 0px;
      }
    </style>
  </defs>
  <path class="cls-1" d="M14.75,4.99c-.01-.08-.04-.15-.09-.2l-2.5-2.9c-.05-.06-.12-.1-.19-.12L7.27.37c-.1-.03-.21-.02-.31.03l-3.8,2.1s-.09.06-.12.1L.34,6c-.07.09-.1.2-.08.31l.8,4.9c.01.07.04.14.09.2l2.5,2.9c.05.06.11.1.19.12l4.6,1.4s.08.02.12.02c.07,0,.14-.02.2-.05l3.8-2.2s.08-.06.11-.09l2.7-3.3c.07-.09.1-.2.09-.31l-.7-4.9ZM13.68,4.88l-2.47.31-4.18-2.56.28-1.41,4.31,1.29,2.05,2.38ZM9.75,10.32l-4.83.46-1.77-4.46,3.63-3.26,4.09,2.51-1.12,4.75ZM3.62,3.16l3.15-1.74-.24,1.2-3.77,3.38h-1.4l2.25-2.84ZM1.83,10.97l-.73-4.47h1.58l1.81,4.57-.61,2.29-2.05-2.38ZM8.5,15.02l-4.21-1.28.65-2.45,4.9-.47,2.01,2.26-3.36,1.94ZM12.24,12.75l-2.02-2.27,1.13-4.8,2.63-.33.64,4.49-2.39,2.92Z"/>
</svg>