<?xml version="1.0" encoding="UTF-8"?>
<svg id="Layer_4" data-name="Layer 4" xmlns="http://www.w3.org/2000/svg" viewBox="0 0 15.71 16.2">
  <defs>
    <style>
      .cls-1 {
        fill: #7d7d7d;
        stroke-width: 0px;
      }
    </style>
  </defs>
  <path class="cls-1" d="M14.65,3.9L8.05.1c-.12-.07-.27-.07-.39,0L1.06,3.8c-.13.07-.2.2-.2.35v7.8c0,.14.08.28.2.35l6.6,3.8c.06.04.13.05.2.05s.14-.02.2-.05l6.6-3.8c.12-.07.2-.2.2-.35v-7.7c0-.14-.08-.28-.2-.35ZM1.65,4.68l2.66,1.56-2.66,4.53v-6.1ZM5.08,6.4h5.73l-2.95,4.95-2.78-4.95ZM5.08,5.9L7.86.95l2.95,4.95h-5.73ZM7.06,1.35l-2.5,4.45-2.66-1.56L7.06,1.35ZM4.65,6.65l2.78,4.95-5.74.09,2.96-5.04ZM11.25,6.65l2.78,5.04-5.74-.09,2.96-4.95ZM11.34,5.81l-2.62-4.4,5.09,2.93-2.47,1.47ZM7.6,12.1v3.04l-5.15-2.96,5.15-.08ZM8.1,12.1l5.15.08-5.15,2.96v-3.04ZM11.59,6.24l2.46-1.46v5.93l-2.46-4.46Z"/>
</svg>