<?xml version="1.0" encoding="UTF-8"?>
<svg id="Layer_2" data-name="Layer 2" xmlns="http://www.w3.org/2000/svg" viewBox="0 0 15.71 16.2">
  <defs>
    <style>
      .cls-1 {
        fill: #7d7d7d;
        stroke-width: 0px;
      }
    </style>
  </defs>
  <path class="cls-1" d="M14.75,3.85L8.15.05c-.12-.07-.27-.07-.39,0L.96,3.85c-.13.07-.2.2-.2.35v7.7c0,.14.08.28.2.35l6.8,3.9c.06.04.13.05.2.05s.14-.02.2-.05l6.6-3.8c.12-.07.2-.2.2-.35v-7.8c0-.14-.08-.28-.2-.35ZM14.15,10.79L8.77,1.33l5.38,3.1v6.36ZM14.12,11.75l-12.53-.09L7.95.9l6.17,10.85ZM7.12,1.33L1.55,10.73v-6.3L7.12,1.33ZM7.95,15.34l-5.54-3.18,10.92.08-5.38,3.1Z"/>
</svg>