<?xml version="1.0" encoding="UTF-8"?>
<svg id="Layer_6" data-name="Layer 6" xmlns="http://www.w3.org/2000/svg" viewBox="0 0 15.71 16.2">
  <defs>
    <style>
      .cls-1 {
        fill: #7d7d7d;
        stroke-width: 0px;
      }
    </style>
  </defs>
  <path class="cls-1" d="M13.51,3.17c-2.92-1.98-7.89-1.43-11.08,1.22h0C.77,5.79-.08,7.64,0,9.38c.07,1.46.84,2.76,2.15,3.65,1.18.8,2.71,1.19,4.31,1.19,2.35,0,4.88-.83,6.77-2.41,1.65-1.38,2.55-3.17,2.47-4.91-.07-1.49-.85-2.81-2.2-3.73ZM12.73,11.19c-2.88,2.4-7.52,2.94-10.12,1.18-1.1-.75-1.74-1.82-1.8-3.03-.07-1.51.7-3.14,2.19-4.38h0c2.89-2.36,7.47-2.88,10.06-1.13,1.13.77,1.79,1.87,1.85,3.1.07,1.49-.72,3.04-2.18,4.26Z"/>
  <path class="cls-1" d="M9.91,6.7c-.79-.2-1.72-.02-2.43.21-1.31.43-2.14,1.25-2.14,1.25-.31,0-.85-.38-.93-.47-.05-.06-.11-.12-.16-.17l-.35.35s.09.1.14.15c.17.19,1.19.83,2.16.73,1.12,0,2.37-.37,3.31-1.05.8-.5,1.32-1.25,1.32-1.91h-.5c0,.24-.15.57-.42.9ZM7.69,7.68c.38-.11.86-.22,1.32-.25-.78.49-1.73.78-2.61.82.38-.25.81-.45,1.29-.57Z"/>
</svg>