<svg viewBox="0 0 30 30" fill="none" xmlns="http://www.w3.org/2000/svg">
<path d="M6.9 22C6.645 22 6.43125 21.9161 6.25875 21.7484C6.08625 21.5807 6 21.3729 6 21.125V8.875C6 8.62708 6.08625 8.41927 6.25875 8.25156C6.43125 8.08385 6.645 8 6.9 8C7.02 8 7.28625 8.06927 7.69875 8.20781C8.11125 8.34635 8.6625 8.49583 9.3525 8.65625C10.0425 8.81667 10.8563 8.96615 11.7938 9.10469C12.7313 9.24323 13.8 9.3125 15 9.3125C16.2 9.3125 17.2688 9.24323 18.2063 9.10469C19.1438 8.96615 19.9575 8.81667 20.6475 8.65625C21.3375 8.49583 21.8888 8.34635 22.3013 8.20781C22.7138 8.06927 22.98 8 23.1 8C23.355 8 23.5688 8.08385 23.7413 8.25156C23.9138 8.41927 24 8.62708 24 8.875V21.125C24 21.3729 23.9138 21.5807 23.7413 21.7484C23.5688 21.9161 23.355 22 23.1 22C22.98 22 22.7138 21.9307 22.3013 21.7922C21.8888 21.6536 21.3375 21.5042 20.6475 21.3438C19.9575 21.1833 19.1438 21.0339 18.2063 20.8953C17.2688 20.7568 16.2 20.6875 15 20.6875C13.8 20.6875 12.7313 20.7568 11.7938 20.8953C10.8563 21.0339 10.0425 21.1833 9.3525 21.3438C8.6625 21.5042 8.11125 21.6536 7.69875 21.7922C7.28625 21.9307 7.02 22 6.9 22Z" fill="currentColor"/>
</svg>
