<svg width="132" height="108" viewBox="0 0 132 108" fill="none" xmlns="http://www.w3.org/2000/svg">
<path d="M72.895 40.2596L65.246 40.8289V69.6994L57.3675 70.3826V41.4193L49.7185 41.9886V72.023C49.7082 73.643 50.3533 75.1993 51.5092 76.3433C52.6651 77.4872 54.2351 78.1231 55.8675 78.1083C56.0488 78.1083 56.2301 78.0999 56.4114 78.083L77 76.295V68.6788L72.895 69.0373V40.2596ZM25.3522 21H25.3437V40.9386L12.2469 42.1152L11.9962 49.6723L25.3437 48.5125V52.9996L11.3205 54.2183C8.31947 54.4955 6.01792 56.9837 5.99597 59.9747V72.6219C5.98794 74.0764 6.56807 75.4733 7.60644 76.4998C8.64481 77.5263 10.0547 78.0966 11.5203 78.083C11.6817 78.083 11.8432 78.083 12.0047 78.083L25.3522 76.9233V97.0854L0 99V22.8977L25.3522 21ZM26 60V68.9535L14 70V61.0465L26 60ZM38.8491 39.4858C38.6874 39.4858 38.5258 39.4858 38.3599 39.507L25 40.7001V48.3425L36.7054 47.3193V51.841L25 52.8643V60.5321L36.7054 59.5089V68.2637L25 69.2869V76.9548L37.4795 75.8424L39.0277 78.1224C42.0316 77.8434 44.3352 75.3383 44.3572 72.3269V44.9671C44.3606 43.5094 43.7809 42.1106 42.7467 41.0814C41.7124 40.0523 40.3094 39.4779 38.8491 39.4858ZM91 0L25 5.3412V20.626L76.6958 16.7326V68.6288L80.4686 68.2977V39.4263L88.1247 38.8532V69.2827C88.0962 72.68 85.4988 75.5056 82.1104 75.8255L76.6958 76.2967V93.352L25 97.2284V108L91 102.659V0ZM100.705 55.6139V46.8691L124.261 44.824V53.573L100.705 55.6181V55.6139ZM99.0389 47.0134L98.7049 43.1947L99.0389 47.0134ZM126.449 37C126.287 37 126.124 37 125.961 37L98.3665 39.41C95.3419 39.6889 93.0222 42.1923 93.0001 45.2016V72.5051C92.992 73.9685 93.5767 75.374 94.6232 76.4068C95.6698 77.4396 97.0907 78.0134 98.5678 77.9998C98.7306 77.9998 98.8933 77.9998 99.0561 77.9998L126.633 75.611L126.886 68.0076L100.722 70.197V63.2809L126.633 61.0364C129.658 60.7575 131.978 58.2541 132 55.2447V42.5159C132.008 41.0525 131.423 39.647 130.377 38.6142C129.33 37.5814 127.909 37.0076 126.432 37.0212" fill="white"/>
</svg>
