<svg width="30" height="30" viewBox="0 0 30 30" fill="none" xmlns="http://www.w3.org/2000/svg">
<path d="M11.9196 6.29573C12.0958 5.99129 12.4066 5.81308 12.7334 5.79359C12.9293 5.77825 13.1316 5.82036 13.3148 5.92594L16.0453 7.50243C16.3151 7.65817 16.5601 7.84031 16.7805 8.04247L20.0442 7.16795C20.626 7.01238 21.2245 7.35854 21.3805 7.94022L22.2628 11.2332C22.4997 12.1175 22.455 13.011 22.1853 13.8189L23.9148 14.8175C24.406 15.1015 24.5744 15.7304 24.2911 16.222L22.6835 19.0064C21.699 20.7114 19.7095 21.4737 17.8952 20.9789L18.3418 22.6457C18.5205 23.3126 18.1247 23.998 17.4579 24.1767C16.7911 24.3553 16.1056 23.9596 15.927 23.2928L15.4857 21.6458C14.1585 22.9727 12.0591 23.3025 10.3564 22.3196L7.5672 20.7092C7.07445 20.4247 6.90581 19.7947 7.1901 19.3019L8.18723 17.5748C7.54907 17.0099 7.06323 16.2583 6.82601 15.3736L5.94365 12.0805C5.78775 11.4987 6.13302 10.8997 6.71472 10.7436L9.97378 9.87037C10.0638 9.58219 10.1858 9.29869 10.3431 9.02629L11.9196 6.29573Z" fill="#3B3F46"/>
</svg>
