<svg width="30" height="30" viewBox="0 0 30 30" fill="none" xmlns="http://www.w3.org/2000/svg">
<path d="M15.6167 6.38536C14.8903 5.35051 13.458 4.646 11.8077 4.646C10.1574 4.646 8.72645 5.35051 8 6.38536C8.72645 7.4202 10.1588 8.12472 11.8077 8.12472C13.4566 8.12472 14.8889 7.4202 15.6154 6.38536H15.6167Z" fill="#3B3F46"/>
<path d="M21.3061 21.4817C19.5626 24.9495 15.3383 26.3462 11.8719 24.6041C8.4055 22.862 7.00743 18.6362 8.74954 15.1685C9.80906 13.0604 14.091 10.3259 17.286 8.50435C19.0692 7.48732 21.3157 8.61674 21.5638 10.6549C22.0079 14.305 22.367 19.3736 21.3061 21.4817Z" fill="#3B3F46"/>
</svg>
