<svg width="30" height="30" viewBox="0 0 30 30" fill="none" xmlns="http://www.w3.org/2000/svg">
<path d="M24.0871 13.6978C22.6401 13.2105 17.803 11.0075 16.2948 3.10492C16.2352 2.79392 16.0737 2.51392 15.8376 2.31249C15.6016 2.11107 15.3056 2.00065 15 2C14.6944 2.00065 14.3984 2.11107 14.1623 2.31249C13.9263 2.51392 13.7647 2.79392 13.7051 3.10492C12.2019 11.0075 7.36151 13.2105 5.91285 13.6978C5.64788 13.7874 5.41695 13.9616 5.25302 14.1954C5.0891 14.4293 5.00055 14.7108 5 15C5.00021 15.2894 5.08859 15.5714 5.25254 15.8056C5.41649 16.0398 5.64761 16.2142 5.91285 16.3039C7.36151 16.7895 12.1969 18.9925 13.7051 26.8968C13.7651 27.2075 13.9268 27.4871 14.1628 27.6882C14.3988 27.8893 14.6946 27.9994 15 28C15.3054 27.9994 15.6012 27.8893 15.8372 27.6882C16.0732 27.4871 16.2349 27.2075 16.2948 26.8968C17.7997 18.9925 22.6401 16.7895 24.0871 16.3022C24.3521 16.2126 24.5831 16.0384 24.747 15.8046C24.9109 15.5707 24.9994 15.2891 25 15C24.9994 14.7108 24.9109 14.4293 24.747 14.1954C24.5831 13.9616 24.3521 13.7874 24.0871 13.6978V13.6978Z" fill="#3B3F46"/>
</svg>
