<svg width="30" height="30" viewBox="0 0 30 30" fill="none" xmlns="http://www.w3.org/2000/svg">
<path d="M12.6 17.0352H6.27002C6.06291 17.0352 5.89502 17.203 5.89502 17.4102V23.7402C5.89502 23.9473 6.06291 24.1152 6.27002 24.1152H12.6C12.8071 24.1152 12.975 23.9473 12.975 23.7402V17.4102C12.975 17.203 12.8071 17.0352 12.6 17.0352Z" fill="#3B3F46" stroke="#3B3F46" stroke-width="1.5" stroke-miterlimit="10"/>
<path fill-rule="evenodd" clip-rule="evenodd" d="M12.945 19.5352H5.86499Z" fill="#3B3F46"/>
<path d="M12.945 19.5352H5.86499" stroke="#3B3F46" stroke-width="1.5" stroke-miterlimit="10"/>
<path d="M20.9 16.6553C18.69 16.6553 16.9 18.4453 16.9 20.6553C16.9 22.8653 18.69 24.6553 20.9 24.6553C23.11 24.6553 24.9 22.8653 24.9 20.6553C24.9 18.4453 23.11 16.6553 20.9 16.6553Z" fill="#3B3F46" stroke="#3B3F46" stroke-width="1.5" stroke-miterlimit="10"/>
<path fill-rule="evenodd" clip-rule="evenodd" d="M21.2637 18.7622L20.9 20.6551Z" fill="#3B3F46"/>
<path d="M21.2637 18.7622L20.9 20.6551" stroke="#3B3F46" stroke-width="1.5" stroke-miterlimit="10" stroke-linecap="round"/>
<path fill-rule="evenodd" clip-rule="evenodd" d="M22.355 22.1103L20.9 20.6553Z" fill="#3B3F46"/>
<path d="M22.355 22.1103L20.9 20.6553" stroke="#3B3F46" stroke-width="1.5" stroke-miterlimit="10" stroke-linecap="round"/>
<path d="M12.06 8.24016C11.86 6.99016 10.755 6.03516 9.40002 6.03516C7.91002 6.03516 6.70002 7.20016 6.70002 8.63516C6.70002 8.64016 6.70002 8.65016 6.70002 8.65516C5.69002 8.76516 4.90002 9.58016 4.90002 10.5852C4.90002 11.6602 5.80502 12.5352 6.92502 12.5352H11.65C12.895 12.5352 13.9 11.5652 13.9 10.3702C13.9 9.31016 13.105 8.43016 12.06 8.24516V8.24016Z" fill="#3B3F46" stroke="#3B3F46" stroke-width="1.5" stroke-miterlimit="10"/>
<path d="M17.1 6.34521C17.1 5.79293 17.5477 5.34521 18.1 5.34521V5.34521C21.966 5.34521 25.1 8.47922 25.1 12.3452V12.3452C25.1 12.8975 24.6523 13.3452 24.1 13.3452H18.1C17.5477 13.3452 17.1 12.8975 17.1 12.3452V6.34521Z" fill="#3B3F46"/>
</svg>
